# xmcd CD database file
#
# Track frame offsets:
#	150
#	22703
#	48564
#	79691
#	102904
#	124313
#	147348
#	165044
#	184228
#
# Disc length: 3094 seconds
#
# Revision: 0
# Processed by: cddbd v1.5.2PL0 Copyright (c) Steve Scherf et al.
# Submitted via: CDex 1.79
#
DISCID=6a0c1409
DTITLE=Dr. John - At Newport - 2006
DYEAR=2015
DGENRE=Blues
TTITLE0=Wild Honey
TTITLE1=Come Rain Or Come Shine
TTITLE2=It Don't Mean A Thing
TTITLE3=Blues In The Night
TTITLE4=Makin' Whoopee
TTITLE5=St. James Infirmary
TTITLE6=Dream
TTITLE7=Right Place, Wrong Time
TTITLE8=Goin' Back To New Orleans
EXTD=YEAR: 2015
EXTT0=
EXTT1=
EXTT2=
EXTT3=
EXTT4=
EXTT5=
EXTT6=
EXTT7=
EXTT8=
PLAYORDER=
